<svg width="1200" height="1200" xmlns="http://www.w3.org/2000/svg" xmlns:xlink="http://www.w3.org/1999/xlink" version="1.1"><rect width="1200" height="1200" fill="#000000"/><g transform="scale(12.053570607487092) translate(-0.22222169240315726, -0.22222264607747277)">                        <g fill="#ffffff"><g xmlns="http://www.w3.org/2000/svg"><polygon points="46.5,31.8 38.5,23.8 12.2,50 38.5,76.2 46.5,68.2 28.2,50  "/><rect x="39.6" y="39.6" transform="matrix(0.7071 -0.7071 0.7071 0.7071 -20.7107 50)" width="20.8" height="20.8"/><polygon points="61.5,23.8 53.5,31.8 71.8,50 53.5,68.2 61.5,76.2 87.8,50  "/><path d="M61.5,16.7L50,28.2L38.5,16.7L5.2,50l33.3,33.3L50,71.8l11.5,11.5L94.8,50L61.5,16.7z M38.5,76.2L12.2,50l26.2-26.2l8,8   L28.2,50l18.2,18.2L38.5,76.2z M35.3,50L50,35.3L64.7,50L50,64.7L35.3,50z M53.5,68.2L71.8,50L53.5,31.8l8-8L87.8,50L61.5,76.2   L53.5,68.2z"/></g></g>        </g></svg>